<?xml version="1.0" encoding="UTF-8"?>
<svg version="1.1" xmlns="http://www.w3.org/2000/svg" width="500" height="500">
<path d="M0 0 C1.01545898 0.19867676 2.03091797 0.39735352 3.07714844 0.60205078 C52.9758035 10.58327711 96.53871388 34.88580573 133 70 C133.7940625 70.7528125 134.588125 71.505625 135.40625 72.28125 C140.75597303 77.46114055 145.38660506 83.16405541 150 89 C151.19109375 90.48306641 151.19109375 90.48306641 152.40625 91.99609375 C175.32205725 121.03970389 191.22147176 154.85685587 199.6875 190.8125 C199.97306763 191.99936401 199.97306763 191.99936401 200.2644043 193.21020508 C204.22851721 210.89052902 205.555362 228.61292655 205.4375 246.6875 C205.43293793 248.18546112 205.43293793 248.18546112 205.42828369 249.71368408 C205.35621635 265.78341917 204.43972751 281.25213186 201 297 C200.78037598 298.02625488 200.56075195 299.05250977 200.33447266 300.10986328 C191.83138831 338.85817193 174.61772522 375.56726438 149 406 C148.57138672 406.51739746 148.14277344 407.03479492 147.70117188 407.56787109 C137.18164284 420.2564129 126.03816903 431.86528878 113 442 C111.52660156 443.18142578 111.52660156 443.18142578 110.0234375 444.38671875 C70.29759115 476.0035908 18.37047678 496.93437939 -32.79296875 497.203125 C-33.69337387 497.21018463 -34.59377899 497.21724426 -35.52146912 497.22451782 C-72.98691069 497.45161655 -72.98691069 497.45161655 -90 494 C-91.01545898 493.80132324 -92.03091797 493.60264648 -93.07714844 493.39794922 C-142.9758035 483.41672289 -186.53871388 459.11419427 -223 424 C-223.7940625 423.2471875 -224.588125 422.494375 -225.40625 421.71875 C-230.75597303 416.53885945 -235.38660506 410.83594459 -240 405 C-240.7940625 404.01128906 -241.588125 403.02257812 -242.40625 402.00390625 C-266.9776499 370.86198961 -283.32468106 334.48759715 -291.25 295.6875 C-291.47671387 294.57942993 -291.47671387 294.57942993 -291.70800781 293.44897461 C-292.18439803 290.97158418 -292.60252786 288.49133778 -293 286 C-293.17805176 284.88423584 -293.35610352 283.76847168 -293.53955078 282.61889648 C-295.19998488 270.98027732 -295.3987437 259.43103747 -295.375 247.6875 C-295.37445618 246.6738739 -295.37391235 245.6602478 -295.37335205 244.61590576 C-295.33347417 228.41878779 -294.46747801 212.87491635 -291 197 C-290.78037598 195.97374512 -290.56075195 194.94749023 -290.33447266 193.89013672 C-279.82149525 145.98280374 -255.85138923 104.15003587 -222 69 C-221.2471875 68.2059375 -220.494375 67.411875 -219.71875 66.59375 C-214.53885945 61.24402697 -208.83594459 56.61339494 -203 52 C-202.01128906 51.2059375 -201.02257812 50.411875 -200.00390625 49.59375 C-167.66655102 24.07913264 -130.33332447 7.86607287 -90 0 C-89.17274414 -0.16661133 -88.34548828 -0.33322266 -87.49316406 -0.50488281 C-59.91781494 -5.80488028 -27.50199116 -5.57960557 0 0 Z " fill="#2AA1DA" transform="translate(295,3)"/>
<path d="M0 0 C1.625 1.125 1.625 1.125 2.625 3.125 C3.58579988 16.66106088 1.46553084 29.14038906 -1.4375 42.3125 C-1.85277462 44.25898453 -2.26665562 46.20576686 -2.67919922 48.15283203 C-3.88561362 53.81592468 -5.1266878 59.47102011 -6.375 65.125 C-6.70868421 66.64628036 -7.04219343 68.16759913 -7.37548828 69.68896484 C-9.0444566 77.28825286 -10.76477972 84.87502614 -12.5234375 92.45410156 C-13.26352921 95.64447395 -13.99785607 98.83607576 -14.72973633 102.02833557 C-17.52423228 114.20777359 -20.36127652 126.36718405 -23.60424805 138.4362793 C-26.62489912 149.70701389 -29.23703451 161.08137407 -31.8125 172.4609375 C-34.23236219 183.13577369 -36.70633822 193.79089026 -39.5 204.375 C-39.72937256 205.273396 -39.95874512 206.17179199 -40.19506836 207.09741211 C-41.70918959 212.69648945 -43.31738526 218.05855703 -48.36328125 221.46875 C-52.8123986 222.92011255 -57.14667113 223.14354584 -61.46875 221.16796875 C-63.88303883 219.60498699 -66.11918404 217.91027766 -68.375 216.125 C-69.38046875 215.33609375 -70.3859375 214.5471875 -71.421875 213.734375 C-73.14855053 212.37565034 -74.87302261 211.01439228 -76.59301758 209.6472168 C-84.31849304 203.52989737 -92.3344036 197.81812776 -100.375 192.125 C-101.51195312 191.31772461 -101.51195312 191.31772461 -102.671875 190.49414062 C-104.85895673 188.94621468 -107.05280015 187.40852058 -109.25 185.875 C-109.90983887 185.40900391 -110.56967773 184.94300781 -111.24951172 184.46289062 C-115.4883288 181.50262305 -115.4883288 181.50262305 -120.375 180.125 C-123.03022352 181.98213422 -123.03022352 181.98213422 -125.625 184.625 C-126.61397823 185.56834311 -127.60356362 186.51105011 -128.59375 187.453125 C-129.5115625 188.33484375 -130.429375 189.2165625 -131.375 190.125 C-132.6161834 191.21842347 -133.86520685 192.30307074 -135.125 193.375 C-137.79605763 195.68659853 -140.38877489 198.0677535 -142.95703125 200.4921875 C-143.61026367 201.10803711 -144.26349609 201.72388672 -144.93652344 202.35839844 C-146.23894788 203.58963131 -147.53796648 204.82448029 -148.83300781 206.06347656 C-158.8566725 215.53934244 -158.8566725 215.53934244 -164.0625 216.75 C-167.47073427 215.8288556 -168.36919208 213.99973707 -170.375 211.125 C-171.54100759 208.54993322 -172.5796825 206.03878109 -173.5546875 203.39453125 C-173.84834198 202.61898392 -174.14199646 201.84343658 -174.44454956 201.04438782 C-178.59207102 190.01501462 -182.53605121 178.90877088 -186.5 167.8125 C-187.29270899 165.59561022 -188.08567651 163.37881288 -188.87890625 161.16210938 C-189.26373169 160.08494659 -189.64855713 159.00778381 -190.04504395 157.89797974 C-190.80430196 155.78657288 -191.5710048 153.6778265 -192.34558105 151.57199097 C-193.88625242 147.37628618 -195.40291385 143.2350394 -196.50585938 138.90087891 C-197.93749978 133.8217241 -198.89806868 131.04189625 -203.47900391 128.19799805 C-207.40762785 126.42860656 -211.48308623 125.27855804 -215.625 124.125 C-217.08784721 123.67632065 -218.54928077 123.22300691 -220.00927734 122.76513672 C-224.11512488 121.49187078 -228.24116463 120.3041248 -232.375 119.125 C-234.17543009 118.58912207 -235.97509861 118.05066688 -237.7734375 117.5078125 C-240.44492598 116.70857623 -243.11932043 115.93019416 -245.80078125 115.1640625 C-249.62273025 114.05298224 -253.41382567 112.88944126 -257.1875 111.625 C-258.28707031 111.2640625 -259.38664062 110.903125 -260.51953125 110.53125 C-263.857829 108.88721828 -265.36728941 107.23262859 -267.375 104.125 C-267.6875 101.1875 -267.6875 101.1875 -266.375 98.125 C-261.62968894 93.32739901 -254.93836317 90.98059582 -248.81640625 88.43359375 C-247.98578171 88.08623672 -247.15515717 87.7388797 -246.29936218 87.3809967 C-236.82570986 83.44429381 -227.2639653 79.74027506 -217.6875 76.0625 C-216.73869965 75.69717163 -215.78989929 75.33184326 -214.81234741 74.95544434 C-163.93162057 55.36460872 -112.72166049 36.62593415 -61.46069336 18.05688477 C-59.23419158 17.25021977 -57.00771006 16.44349888 -54.78125 15.63671875 C-53.17794579 15.05577202 -53.17794579 15.05577202 -51.54225159 14.46308899 C-44.96416582 12.07574526 -38.39963265 9.65461413 -31.84375 7.20703125 C-29.55556087 6.35723834 -27.26708888 5.50821214 -24.97851562 4.65945435 C-22.95645952 3.90537832 -20.93918584 3.13946117 -18.921875 2.37280273 C-17.74109375 1.93524658 -16.5603125 1.49769043 -15.34375 1.046875 C-14.34794922 0.67143555 -13.35214844 0.29599609 -12.32617188 -0.09082031 C-8.11112832 -1.21083354 -4.13198826 -1.52231146 0 0 Z " fill="#FDFEFE" transform="translate(370.375,141.875)"/>
<path d="M0 0 C-1.50814187 9.65620246 -15.44877893 19.60233687 -22.20239258 26.33276367 C-24.06643244 28.19142108 -25.92503512 30.05539614 -27.78320312 31.91992188 C-38.56830454 42.71042025 -38.56830454 42.71042025 -44.39819336 47.61254883 C-46.18780848 49.16267575 -47.84259696 50.80998347 -49.5 52.5 C-51.75797943 54.79326036 -54.05996504 56.96428028 -56.5 59.0625 C-60.55934713 62.56112019 -64.46650299 66.2101483 -68.375 69.875 C-73.38100442 74.56678403 -78.41869338 79.21354134 -83.53515625 83.78515625 C-86.41895703 86.37646376 -89.27218515 88.99969936 -92.125 91.625 C-98.26587479 97.2674398 -104.42487801 102.86318595 -111 108 C-110.7127253 111.25252202 -110.40229977 112.63688744 -107.93725586 114.86181641 C-107.03885986 115.43593262 -106.14046387 116.01004883 -105.21484375 116.6015625 C-103.71630859 117.57706055 -103.71630859 117.57706055 -102.1875 118.57226562 C-101.115 119.24966797 -100.0425 119.92707031 -98.9375 120.625 C-96.74806991 122.04330185 -94.55927 123.46257697 -92.37109375 124.8828125 C-90.75050049 125.92550293 -90.75050049 125.92550293 -89.09716797 126.98925781 C-84.84460277 129.75010654 -80.66526635 132.60973582 -76.5 135.5 C-75.830896 135.96229004 -75.16179199 136.42458008 -74.47241211 136.90087891 C-72.98040782 137.932185 -71.48998334 138.96577627 -70 140 C-70.75667969 140.75539063 -71.51335937 141.51078125 -72.29296875 142.2890625 C-73.78019082 143.77843063 -75.2649591 145.27031782 -76.73828125 146.7734375 C-80.19063995 150.28576273 -83.76169525 153.56912273 -87.49609375 156.77734375 C-89.56493027 158.61379925 -91.58665484 160.48011779 -93.59765625 162.37890625 C-94.24863281 162.99306396 -94.89960938 163.60722168 -95.5703125 164.23999023 C-96.86924126 165.4690379 -98.16497878 166.70146971 -99.45703125 167.93774414 C-109.48284798 177.41461581 -109.48284798 177.41461581 -114.6875 178.625 C-118.09585077 177.70382412 -118.99421715 175.87493952 -121 173 C-122.16586135 170.4236562 -123.20458939 167.91103451 -124.1796875 165.265625 C-124.47334198 164.48987122 -124.76699646 163.71411743 -125.06954956 162.91485596 C-126.05990224 160.28138677 -127.03234533 157.64189145 -128 155 C-128.35195435 154.039729 -128.70390869 153.07945801 -129.06652832 152.09008789 C-131.78287978 144.65418481 -134.45638782 137.20313927 -137.125 129.75 C-137.91775435 127.54158969 -138.71072211 125.33325598 -139.50390625 123.125 C-143.3473102 112.420738 -147.18017151 101.71269826 -151 91 C-150.02546875 90.61714844 -149.0509375 90.23429687 -148.046875 89.83984375 C-143.47884013 87.87769637 -139.41514134 85.25708171 -135.25 82.5625 C-133.55085203 81.47645176 -131.85163131 80.39051732 -130.15234375 79.3046875 C-129.29237793 78.75264648 -128.43241211 78.20060547 -127.54638672 77.63183594 C-123.64635497 75.13252508 -119.72992681 72.65942345 -115.8125 70.1875 C-115.03898193 69.69878418 -114.26546387 69.21006836 -113.46850586 68.70654297 C-104.02398878 62.74370327 -94.54678116 56.8331647 -85.07177734 50.91894531 C-82.06326206 49.03951993 -79.05669021 47.15702804 -76.05078125 45.2734375 C-56.28799822 32.8933689 -36.42900022 20.67286367 -16.5 8.5625 C-15.88274048 8.18716125 -15.26548096 7.81182251 -14.6295166 7.42510986 C-12.88898698 6.36712142 -11.14763787 5.31048147 -9.40625 4.25390625 C-8.40916016 3.64877197 -7.41207031 3.0436377 -6.38476562 2.42016602 C-2.32078391 0 -2.32078391 0 0 0 Z " fill="#C8DAEA" transform="translate(321,180)"/>
<path d="M0 0 C3.60379944 1.31943693 6.58329262 2.91168137 9.73828125 5.08984375 C10.63401855 5.704646 11.52975586 6.31944824 12.45263672 6.95288086 C13.3963916 7.60780518 14.34014648 8.26272949 15.3125 8.9375 C16.28203613 9.60467041 17.25157227 10.27184082 18.25048828 10.95922852 C20.22292665 12.31712773 22.19396287 13.67706598 24.16357422 15.0390625 C27.52338119 17.36183489 30.89065383 19.67359306 34.25854492 21.98461914 C37.17464925 23.98643445 40.08749212 25.99295661 43 28 C42.24332031 28.75539063 41.48664063 29.51078125 40.70703125 30.2890625 C39.21980918 31.77843063 37.7350409 33.27031782 36.26171875 34.7734375 C32.80936005 38.28576273 29.23830475 41.56912273 25.50390625 44.77734375 C23.43506973 46.61379925 21.41334516 48.48011779 19.40234375 50.37890625 C18.75136719 50.99306396 18.10039062 51.60722168 17.4296875 52.23999023 C16.13075874 53.4690379 14.83502122 54.70146971 13.54296875 55.93774414 C3.33748289 65.58444749 3.33748289 65.58444749 -1.8125 66.5 C-4 66 -4 66 -6 63 C-5.9046359 60.05738979 -5.68901356 57.25288909 -5.35546875 54.3359375 C-5.26622635 53.47046295 -5.17698395 52.6049884 -5.08503723 51.71328735 C-4.79655355 48.93261086 -4.49280997 46.15387498 -4.1875 43.375 C-3.80051109 39.75837755 -3.4202495 36.14108463 -3.04296875 32.5234375 C-2.94942108 31.63702576 -2.85587341 30.75061401 -2.75949097 29.83734131 C-2.09321488 23.36420198 -1.62490014 16.89699547 -1.33207703 10.39633179 C-1.16242038 6.83961034 -0.80818144 3.4703036 0 0 Z " fill="#A8C6D8" transform="translate(208,292)"/>
</svg>
